<?xml version="1.0" standalone="no"?>
<!DOCTYPE svg PUBLIC "-//W3C//DTD SVG 20010904//EN"
 "http://www.w3.org/TR/2001/REC-SVG-20010904/DTD/svg10.dtd">
<svg version="1.0" xmlns="http://www.w3.org/2000/svg"
 width="1216.000000pt" height="1216.000000pt" viewBox="0 0 1216.000000 1216.000000"
 preserveAspectRatio="xMidYMid meet">
<metadata>
Created by potrace 1.14, written by Peter Selinger 2001-2017
</metadata>
<g transform="translate(0.000000,1216.000000) scale(0.100000,-0.100000)"
fill="#000000" stroke="none">
<path d="M4138 9815 c-2 -2 -25 -5 -53 -8 -66 -8 -148 -30 -210 -58 -27 -12
-52 -23 -56 -23 -13 -2 -159 -102 -159 -109 0 -4 -16 -22 -36 -39 -19 -17 -55
-59 -78 -92 -49 -69 -226 -372 -226 -387 0 -5 -4 -9 -10 -9 -5 0 -10 -4 -10
-9 0 -7 -30 -63 -60 -111 -16 -24 -71 -121 -103 -180 -17 -30 -33 -57 -36 -60
-4 -3 -12 -16 -18 -30 -7 -14 -26 -47 -42 -75 -16 -27 -42 -72 -56 -100 -15
-27 -33 -57 -41 -66 -8 -9 -11 -19 -7 -22 3 -4 1 -7 -5 -7 -7 0 -12 -6 -12
-14 0 -8 -3 -16 -7 -18 -8 -3 -44 -66 -67 -115 -6 -13 -14 -23 -18 -23 -5 0
-8 -4 -8 -9 0 -5 -22 -47 -50 -94 -27 -47 -50 -90 -50 -96 0 -6 -4 -11 -8 -11
-5 0 -19 -22 -32 -50 -13 -27 -27 -50 -32 -50 -4 0 -8 -5 -8 -10 0 -6 -47 -92
-105 -191 -58 -99 -105 -184 -105 -188 0 -4 -6 -13 -12 -19 -14 -14 -71 -111
-90 -154 -7 -16 -16 -28 -20 -28 -4 0 -8 -4 -8 -9 0 -5 -23 -49 -51 -98 -29
-48 -63 -108 -77 -132 -14 -25 -37 -65 -52 -90 l-26 -46 27 -45 c15 -25 37
-62 48 -82 40 -74 46 -83 56 -90 6 -4 6 -8 1 -8 -5 0 -2 -8 6 -17 15 -18 72
-114 73 -123 0 -3 13 -24 28 -47 15 -24 27 -45 27 -47 0 -2 21 -40 46 -83 26
-43 58 -98 72 -123 13 -25 31 -52 38 -61 8 -8 14 -19 14 -23 0 -4 22 -45 50
-92 27 -47 50 -89 50 -94 0 -6 4 -10 9 -10 5 0 15 -15 22 -32 13 -32 48 -90
69 -115 6 -7 9 -13 6 -13 -3 0 22 -45 54 -101 33 -55 60 -105 60 -110 0 -5 5
-9 10 -9 6 0 10 -4 10 -10 0 -5 20 -43 45 -85 24 -41 41 -75 37 -75 -4 0 -2
-4 4 -8 11 -7 30 -36 70 -112 11 -19 21 -37 24 -40 9 -9 50 -83 66 -117 8 -18
19 -33 24 -33 6 0 10 -8 10 -19 0 -10 7 -24 15 -31 8 -7 15 -16 15 -20 0 -4
18 -38 40 -74 22 -36 40 -70 40 -76 0 -5 4 -10 9 -10 5 0 14 -12 20 -28 6 -15
24 -49 41 -77 16 -27 40 -68 51 -90 12 -22 28 -48 37 -57 8 -10 11 -18 6 -18
-5 0 -4 -4 1 -8 6 -4 37 -54 69 -112 33 -58 65 -112 72 -120 7 -8 14 -19 15
-25 1 -5 12 -26 24 -45 12 -19 39 -66 60 -105 20 -38 43 -77 49 -85 6 -8 20
-31 31 -50 10 -19 28 -51 40 -72 67 -121 140 -243 147 -246 5 -2 6 -7 3 -12
-3 -4 2 -13 10 -20 8 -7 15 -16 15 -21 0 -4 25 -49 55 -100 30 -50 55 -93 55
-95 0 -3 11 -21 23 -42 13 -20 35 -57 49 -82 14 -25 36 -63 48 -85 13 -22 37
-64 54 -94 17 -29 43 -74 58 -100 16 -25 33 -57 40 -71 7 -14 15 -27 18 -30 3
-3 11 -16 18 -29 8 -13 23 -40 34 -60 11 -20 46 -79 76 -131 31 -52 56 -97 55
-100 -1 -3 4 -12 11 -20 7 -8 40 -61 72 -118 32 -57 74 -129 92 -160 18 -31
36 -64 38 -74 3 -9 13 -18 22 -20 42 -10 2919 0 2950 10 17 6 32 8 32 5 0 -3
7 0 15 7 8 7 15 10 15 6 0 -9 121 39 177 69 66 37 149 100 182 139 9 10 30 34
48 55 73 83 139 225 167 358 13 62 15 231 2 293 -21 109 -71 227 -145 345 -28
43 -36 57 -73 125 -13 25 -36 64 -51 87 -15 24 -27 47 -27 53 0 5 -4 10 -10
10 -5 0 -10 5 -10 11 0 9 -79 151 -128 229 -9 14 -15 26 -15 27 2 3 -94 165
-104 178 -5 6 -15 25 -22 43 -7 17 -17 32 -22 32 -5 0 -9 4 -9 10 0 5 -23 49
-51 97 -52 89 -80 139 -115 203 -10 19 -21 37 -24 40 -5 5 -10 13 -52 89 -34
61 -158 275 -169 291 -5 8 -15 27 -22 43 -6 15 -15 27 -19 27 -4 0 -8 4 -8 9
0 5 -18 39 -40 75 -22 36 -40 68 -40 71 0 3 -11 22 -24 43 -18 30 -123 210
-236 407 -10 17 -58 101 -109 188 -50 86 -91 162 -91 167 0 6 -4 10 -10 10 -5
0 -10 6 -10 14 0 7 -7 19 -15 26 -9 7 -13 15 -11 18 3 2 -4 16 -14 30 -11 13
-20 31 -20 38 0 8 -4 14 -8 14 -5 0 -19 23 -32 50 -13 28 -27 50 -32 50 -4 0
-8 5 -8 11 0 6 -23 49 -51 97 -29 48 -63 107 -77 132 -14 25 -45 78 -69 118
-24 41 -43 76 -43 79 0 2 -13 24 -30 48 -16 24 -30 46 -30 50 0 3 -21 42 -47
86 -89 150 -114 194 -120 212 -3 9 -9 17 -14 17 -5 0 -9 5 -9 10 0 6 -11 27
-23 48 -13 20 -41 69 -62 107 -21 39 -43 77 -49 85 -11 15 -19 28 -64 109 -14
25 -36 63 -49 83 -12 21 -23 42 -23 48 0 5 -4 10 -10 10 -5 0 -10 4 -10 10 0
5 -50 96 -111 202 -62 106 -123 213 -137 238 -14 25 -36 62 -49 82 -12 21 -23
42 -23 48 0 5 -4 10 -8 10 -4 0 -13 12 -20 28 -6 15 -25 50 -42 77 -16 28 -34
59 -40 70 -6 11 -19 34 -29 50 -17 28 -29 49 -80 138 -10 17 -60 104 -111 192
-51 88 -106 185 -123 215 -17 30 -34 57 -39 58 -4 2 -8 8 -8 14 0 6 -22 48
-50 94 -27 46 -50 88 -50 94 0 5 -4 10 -10 10 -5 0 -10 6 -10 13 0 7 -9 23
-20 35 -11 12 -20 24 -20 27 0 7 -9 18 -88 98 -31 31 -62 57 -69 57 -7 0 -13
4 -13 10 0 28 -243 132 -341 145 -48 6 -177 13 -181 10z m207 -1942 c168 -45
308 -163 394 -331 12 -23 19 -42 15 -42 -4 0 -1 -7 6 -15 7 -8 9 -15 5 -15 -4
0 -2 -7 5 -15 7 -8 10 -15 7 -15 -3 0 -1 -15 4 -32 10 -35 13 -163 4 -213 -33
-187 -152 -352 -315 -435 -52 -27 -150 -61 -150 -53 0 3 -6 1 -12 -5 -21 -16
-235 -8 -289 11 -143 51 -222 107 -313 222 -35 44 -81 134 -91 180 -2 6 -8 29
-14 52 -21 77 -13 225 15 310 36 107 68 157 158 247 144 144 371 203 571 149z"/>
<path d="M6327 9803 c-2 -1 -23 -5 -47 -8 -49 -6 -130 -30 -172 -52 -15 -7
-31 -13 -34 -12 -4 0 -10 -3 -13 -8 -3 -4 -28 -24 -56 -43 -127 -88 -219 -233
-250 -393 -11 -58 -12 -187 -2 -237 10 -49 41 -136 59 -168 11 -20 32 -57 46
-82 13 -25 39 -70 57 -100 18 -30 43 -72 54 -93 12 -21 61 -107 110 -190 48
-84 101 -174 116 -202 45 -79 84 -146 116 -200 17 -27 33 -58 36 -67 3 -10 9
-18 14 -18 5 0 9 -4 9 -9 0 -10 173 -313 204 -356 11 -16 20 -32 20 -35 -1 -3
10 -22 22 -42 13 -21 24 -40 24 -42 0 -3 25 -46 55 -97 30 -50 55 -93 55 -95
0 -2 14 -27 31 -56 18 -29 40 -66 49 -83 10 -16 50 -86 90 -155 40 -69 81
-141 92 -160 64 -111 213 -368 224 -387 8 -13 15 -26 15 -30 1 -5 13 -26 28
-48 15 -22 33 -53 41 -70 8 -16 17 -32 21 -35 3 -3 23 -36 44 -75 22 -38 45
-79 52 -90 7 -11 17 -29 23 -40 6 -11 21 -38 35 -60 13 -22 29 -50 35 -63 5
-13 17 -30 25 -39 8 -8 13 -19 10 -24 -4 -5 -2 -9 2 -9 5 0 19 -19 31 -42 12
-24 36 -65 52 -93 17 -27 36 -61 43 -75 6 -14 17 -31 24 -38 7 -7 13 -17 13
-22 0 -4 18 -38 40 -74 22 -36 40 -70 40 -76 0 -5 4 -10 9 -10 5 0 11 -8 14
-17 6 -18 32 -64 88 -156 16 -26 29 -49 29 -51 0 -2 27 -50 60 -105 33 -56 60
-105 60 -110 0 -5 4 -11 8 -13 4 -1 28 -39 51 -83 24 -44 47 -82 50 -85 3 -3
16 -23 28 -45 48 -90 185 -329 192 -335 3 -3 16 -25 28 -50 13 -25 29 -54 35
-65 32 -48 64 -103 84 -140 11 -22 34 -63 51 -91 17 -27 42 -70 55 -95 14 -24
92 -159 173 -299 81 -140 159 -275 173 -300 14 -25 33 -58 43 -75 10 -16 31
-52 46 -79 16 -27 33 -56 38 -65 6 -9 24 -40 40 -70 17 -30 35 -61 40 -70 6
-9 21 -34 33 -56 13 -22 36 -62 53 -90 16 -27 33 -58 36 -67 3 -10 10 -18 15
-18 5 0 7 -4 4 -9 -3 -5 1 -14 9 -21 8 -7 15 -19 15 -26 0 -8 5 -14 10 -14 6
0 10 -4 10 -10 0 -12 22 -40 81 -101 67 -69 185 -140 269 -161 75 -19 88 -20
170 -22 76 -2 102 2 229 35 68 18 225 134 279 205 34 46 105 174 95 174 -3 0
-1 6 5 13 6 6 10 15 10 20 1 4 6 32 12 63 12 59 15 182 5 224 -3 14 -8 36 -11
50 -14 72 -56 152 -294 560 -40 69 -84 145 -98 170 -13 25 -28 50 -32 55 -4 6
-19 30 -32 55 -14 25 -84 146 -156 270 -71 124 -178 308 -236 408 -58 101
-106 188 -106 193 0 5 -4 9 -10 9 -5 0 -10 4 -10 9 0 6 -29 60 -65 121 -36 61
-76 130 -89 153 -13 23 -58 103 -101 177 -43 74 -100 173 -127 220 -26 47 -53
92 -58 100 -30 49 -60 104 -60 111 0 5 -4 9 -10 9 -5 0 -10 5 -10 11 0 6 -20
44 -45 85 -25 40 -45 78 -45 83 0 5 -3 11 -7 13 -5 2 -17 21 -28 43 -11 22
-22 42 -25 45 -3 3 -28 43 -54 90 -27 47 -57 100 -67 118 -23 39 -52 90 -80
140 -12 20 -30 49 -40 64 -11 14 -19 29 -19 32 0 3 -31 59 -70 125 -38 66 -70
125 -70 131 0 5 -4 10 -10 10 -5 0 -10 7 -10 15 0 8 -4 15 -10 15 -5 0 -10 6
-10 13 0 8 -18 42 -40 75 -22 34 -37 62 -33 62 3 0 -1 8 -9 18 -8 9 -41 63
-72 120 -32 56 -62 105 -67 108 -5 3 -7 10 -4 15 4 5 1 9 -4 9 -6 0 -11 4 -11
9 0 12 -83 155 -92 159 -5 2 -8 8 -8 13 0 9 -80 153 -110 199 -6 8 -16 26 -22
40 -7 14 -15 27 -19 30 -3 3 -23 37 -44 75 -20 39 -41 75 -45 80 -4 6 -19 30
-32 55 -52 93 -70 125 -78 135 -4 6 -17 26 -27 45 -27 49 -92 162 -103 180 -5
8 -23 38 -38 66 -43 75 -83 146 -99 174 -8 14 -23 39 -33 55 -11 17 -23 37
-27 45 -4 8 -20 38 -36 65 -37 62 -63 107 -95 165 -13 25 -31 52 -38 61 -8 9
-12 18 -9 21 3 3 -1 11 -10 18 -8 7 -15 19 -15 26 0 8 -3 14 -7 14 -5 0 -13
10 -19 23 -17 36 -75 141 -84 152 -9 11 -47 77 -67 117 -8 15 -19 30 -24 33
-5 4 -7 10 -4 14 2 5 -4 16 -15 26 -11 10 -20 22 -20 27 0 11 -77 143 -100
172 -47 59 -75 88 -122 123 -49 38 -159 102 -176 103 -4 0 -23 5 -42 10 -65
17 -214 33 -223 23z"/>
<path d="M9673 7477 c-2 -4 -8 -5 -12 -3 -11 7 -117 -22 -170 -47 -96 -44
-205 -134 -269 -222 -18 -25 -72 -144 -81 -180 -25 -99 -33 -192 -18 -212 6
-9 5 -13 -2 -13 -7 0 -10 -4 -7 -8 3 -5 8 -22 10 -38 18 -93 26 -120 55 -177
22 -44 202 -359 231 -407 23 -36 145 -248 162 -280 10 -19 23 -42 28 -50 5 -8
24 -40 41 -70 18 -30 40 -68 49 -85 10 -16 34 -58 54 -92 20 -34 36 -66 36
-71 0 -6 3 -12 8 -14 10 -4 102 -165 102 -178 0 -5 5 -10 10 -10 6 0 10 -6 10
-14 0 -7 7 -19 15 -26 9 -7 13 -15 11 -18 -3 -2 4 -16 14 -30 11 -13 20 -31
20 -38 0 -8 4 -14 8 -14 5 0 19 -22 32 -50 13 -27 27 -50 32 -50 4 0 8 -5 8
-11 0 -6 23 -49 51 -97 29 -48 63 -107 77 -132 13 -25 28 -49 32 -55 4 -5 19
-30 32 -55 53 -95 71 -126 89 -152 11 -14 19 -29 19 -32 0 -4 21 -43 48 -87
88 -150 113 -194 119 -211 3 -10 9 -18 14 -18 5 0 9 -5 9 -10 0 -6 11 -27 23
-48 13 -20 41 -68 62 -107 21 -38 43 -77 49 -85 11 -15 15 -22 58 -99 35 -62
60 -94 117 -150 49 -46 150 -115 166 -111 3 0 18 -6 33 -14 100 -54 252 -65
390 -30 223 56 395 220 456 434 56 198 28 354 -104 575 -16 28 -32 57 -36 65
-4 8 -27 48 -51 88 -24 41 -43 77 -43 82 0 5 -3 10 -7 12 -5 2 -15 17 -24 33
-9 17 -43 75 -75 130 -32 55 -59 102 -59 105 0 3 -12 23 -26 45 -14 22 -29 47
-32 55 -4 8 -17 31 -28 50 -20 34 -345 596 -371 642 -7 13 -15 25 -18 28 -3 3
-14 23 -25 45 -11 22 -22 42 -25 45 -3 3 -33 52 -65 110 -33 58 -65 114 -72
125 -7 11 -15 27 -19 35 -4 8 -19 33 -33 55 -14 22 -40 69 -59 105 -19 36 -38
67 -42 70 -4 3 -19 28 -34 55 -14 28 -42 77 -61 110 -19 33 -41 71 -47 85 -7
14 -15 27 -18 30 -6 5 -35 54 -80 135 -122 218 -191 326 -239 374 -58 57 -202
147 -215 134 -3 -4 -6 0 -6 7 0 7 -3 10 -7 7 -3 -4 -11 -3 -17 2 -6 5 -24 12
-41 15 -16 3 -43 8 -60 12 -43 9 -176 10 -182 1z"/>
<path d="M1347 5689 c-39 -61 -177 -303 -177 -310 0 -4 -6 -14 -14 -21 -8 -8
-26 -37 -40 -64 -15 -27 -40 -71 -56 -99 -17 -27 -33 -58 -36 -67 -4 -10 -10
-18 -15 -18 -5 0 -9 -9 -9 -19 0 -11 -4 -21 -8 -23 -5 -1 -33 -46 -62 -98 -30
-52 -63 -108 -72 -125 -10 -16 -26 -45 -35 -62 -9 -18 -21 -33 -25 -33 -5 0
-7 -4 -4 -9 3 -5 -2 -19 -12 -32 -20 -26 -146 -244 -171 -296 -8 -18 -19 -33
-23 -33 -4 0 -8 -4 -8 -9 0 -13 -111 -204 -123 -212 -5 -3 -9 -10 -8 -15 0 -5
-10 -25 -21 -44 -12 -19 -22 -37 -23 -40 0 -3 -26 -48 -57 -100 -262 -445
-298 -515 -327 -637 -26 -108 -22 -307 9 -387 5 -13 6 -27 3 -30 -4 -3 -2 -6
4 -6 5 0 10 -6 10 -14 0 -20 59 -138 94 -191 122 -181 324 -308 544 -342 71
-11 2615 -9 2614 2 0 5 -9 24 -19 40 -24 38 -75 126 -107 185 -14 25 -29 50
-33 55 -4 6 -20 33 -36 60 -15 28 -34 62 -43 77 -49 82 -71 121 -71 129 0 5
-5 9 -10 9 -6 0 -9 3 -8 8 1 4 -5 18 -14 32 -22 34 -126 216 -152 265 -12 22
-27 46 -33 53 -7 7 -16 24 -19 38 -3 13 -10 24 -15 24 -5 0 -9 5 -9 10 0 6
-11 29 -26 51 -14 22 -34 57 -46 77 -20 36 -121 213 -138 242 -34 57 -282 486
-311 538 -34 58 -55 94 -186 322 -72 124 -140 241 -151 260 -11 19 -33 58 -47
85 -15 28 -34 58 -43 68 -8 9 -12 17 -8 17 4 0 0 7 -8 16 -9 8 -16 22 -16 30
0 8 -4 14 -10 14 -5 0 -10 4 -10 9 0 6 -45 87 -100 181 -55 94 -100 173 -100
174 0 2 -38 68 -84 146 -83 140 -84 142 -99 119z"/>
</g>
</svg>
